<?xml version="1.0" encoding="iso-8859-1"?>
<!-- Generator: Adobe Illustrator 19.0.0, SVG Export Plug-In . SVG Version: 6.00 Build 0)  -->
<svg xmlns="http://www.w3.org/2000/svg" xmlns:xlink="http://www.w3.org/1999/xlink" version="1.1" id="Capa_1" x="0px" y="0px" viewBox="0 0 502.664 502.664" style="enable-background:new 0 0 502.664 502.664;" xml:space="preserve" width="512px" height="512px">
<g>
	<g>
		<g>
			<path d="M0,489.538h502.664V165.674H0V489.538z M267.025,223.915c51.964,0,88.958,35.527,88.958,84.881     c0,43.12-24.095,70.148-55.782,70.148c-13.848,0-23.814-7.377-25.238-22.606h-0.561c-9.426,14.668-22.326,22.606-38.202,22.606     c-18.788,0-32.874-14.388-32.874-38.482c0-36.109,26.705-68.401,68.983-68.401c12.899,0,27.567,3.192,34.621,7.032l-8.801,54.639     c-2.696,17.3-0.561,25.195,7.636,25.518c12.619,0.604,28.452-15.553,28.452-49.613c0-38.482-24.677-67.819-70.17-67.819     c-45.234,0-84.255,34.966-84.255,91.309c0,49.311,31.083,76.857,74.894,76.857c14.97,0,31.083-3.171,42.84-9.06l4.983,16.761     c-17.58,7.895-32.831,10.548-53.69,10.548c-48.793,0-91.611-34.923-91.611-92.474     C157.229,275.858,200.975,223.915,267.025,223.915z" fill="#0898ff"/>
			<path d="M232.986,336.99c0,11.131,4.961,18.206,14.366,18.206c11.152,0,22.628-13.827,24.957-30.846     l4.379-27.891c-2.286-0.582-5.544-1.186-9.124-1.186C248.215,295.272,232.986,314.362,232.986,336.99z" fill="#0898ff"/>
			<polygon points="251.882,13.126 0,150.64 502.664,150.64    " fill="#0898ff"/>
		</g>
	</g>
	<g>
	</g>
	<g>
	</g>
	<g>
	</g>
	<g>
	</g>
	<g>
	</g>
	<g>
	</g>
	<g>
	</g>
	<g>
	</g>
	<g>
	</g>
	<g>
	</g>
	<g>
	</g>
	<g>
	</g>
	<g>
	</g>
	<g>
	</g>
	<g>
	</g>
</g>
<g>
</g>
<g>
</g>
<g>
</g>
<g>
</g>
<g>
</g>
<g>
</g>
<g>
</g>
<g>
</g>
<g>
</g>
<g>
</g>
<g>
</g>
<g>
</g>
<g>
</g>
<g>
</g>
<g>
</g>
</svg>
