<svg width="455.992" height="455.992" xmlns="http://www.w3.org/2000/svg">

 <g>
  <title>background</title>
  <rect fill="none" id="canvas_background" height="402" width="582" y="-1" x="-1"/>
 </g>
 <g>
  <title>Layer 1</title>
  <g transform="rotate(-180 227.99600219726562,227.99600219726562) " id="svg_1">
   <g id="svg_2">
    <g id="svg_3">
     <path id="svg_4" fill="#0898ff" d="m227.996,0c-125.915,0 -227.996,102.081 -227.996,227.996c0,125.945 102.081,227.996 227.996,227.996c125.945,0 227.996,-102.051 227.996,-227.996c0,-125.915 -102.051,-227.996 -227.996,-227.996zm71.439,238.788l-98.585,98.585c-5.928,5.897 -15.565,5.897 -21.492,0c-5.928,-5.928 -5.928,-15.595 0,-21.492l87.885,-87.885l-87.885,-87.885c-5.928,-5.928 -5.928,-15.565 0,-21.492s15.565,-5.928 21.492,0l98.585,98.585c3.04,2.979 4.469,6.901 4.438,10.792c0,3.922 -1.459,7.813 -4.438,10.792z"/>
    </g>
   </g>
   <g id="svg_5"/>
   <g id="svg_6"/>
   <g id="svg_7"/>
   <g id="svg_8"/>
   <g id="svg_9"/>
   <g id="svg_10"/>
   <g id="svg_11"/>
   <g id="svg_12"/>
   <g id="svg_13"/>
   <g id="svg_14"/>
   <g id="svg_15"/>
   <g id="svg_16"/>
   <g id="svg_17"/>
   <g id="svg_18"/>
   <g id="svg_19"/>
  </g>
  <g id="svg_20"/>
  <g id="svg_21"/>
  <g id="svg_22"/>
  <g id="svg_23"/>
  <g id="svg_24"/>
  <g id="svg_25"/>
  <g id="svg_26"/>
  <g id="svg_27"/>
  <g id="svg_28"/>
  <g id="svg_29"/>
  <g id="svg_30"/>
  <g id="svg_31"/>
  <g id="svg_32"/>
  <g id="svg_33"/>
  <g id="svg_34"/>
 </g>
</svg>