<?xml version="1.0" encoding="iso-8859-1"?>
<!-- Generator: Adobe Illustrator 19.0.0, SVG Export Plug-In . SVG Version: 6.00 Build 0)  -->
<svg xmlns="http://www.w3.org/2000/svg" xmlns:xlink="http://www.w3.org/1999/xlink" version="1.1" id="Layer_1" x="0px" y="0px" viewBox="0 0 468.179 468.179" style="enable-background:new 0 0 468.179 468.179;" xml:space="preserve" width="512px" height="512px">
<g>
	<g>
		<g>
			<path d="M332.587,226.233C307.597,257.701,272.755,276,234.09,276c-39.772,0-74.273-19.264-98.496-49.767     C83.66,259.029,49.09,316.93,49.09,382.763c0,19.942,10.92,47.734,62.942,66.889c32.45,11.948,75.798,18.527,122.058,18.527     c46.26,0,89.607-6.579,122.058-18.527c52.023-19.154,62.942-46.946,62.942-66.889C419.09,316.93,384.52,259.029,332.587,226.233z     " fill="#58575e"/>
			<path d="M234.09,246c58.304,0,103.2-56.357,103.2-123c0-66.672-44.919-123-103.2-123c-58.304,0-103.2,56.357-103.2,123     C130.89,189.672,175.81,246,234.09,246z" fill="#58575e"/>
		</g>
	</g>
</g>
<g>
</g>
<g>
</g>
<g>
</g>
<g>
</g>
<g>
</g>
<g>
</g>
<g>
</g>
<g>
</g>
<g>
</g>
<g>
</g>
<g>
</g>
<g>
</g>
<g>
</g>
<g>
</g>
<g>
</g>
</svg>
